<?xml version="1.0" standalone="no"?>
<!DOCTYPE svg PUBLIC "-//W3C//DTD SVG 20010904//EN"
 "http://www.w3.org/TR/2001/REC-SVG-20010904/DTD/svg10.dtd">
<svg version="1.0" xmlns="http://www.w3.org/2000/svg"
 width="1024.000000pt" height="1024.000000pt" viewBox="0 0 1024.000000 1024.000000"
 preserveAspectRatio="xMidYMid meet">
<metadata>
Created by potrace 1.14, written by Peter Selinger 2001-2017
</metadata>
<g transform="translate(0.000000,1024.000000) scale(0.100000,-0.100000)"
fill="#000000" stroke="none">
<path d="M2230 8713 c-158 -24 -247 -91 -350 -261 -29 -48 -68 -111 -87 -139
-89 -141 -233 -371 -290 -465 -17 -29 -36 -58 -41 -63 -5 -6 -11 -15 -13 -20
-4 -11 -77 -127 -170 -274 -32 -51 -59 -97 -59 -101 0 -5 -3 -10 -7 -12 -5 -1
-26 -32 -47 -68 -22 -36 -63 -101 -91 -145 -220 -340 -296 -568 -282 -837 6
-116 9 -137 29 -223 6 -27 11 -52 11 -55 -1 -12 67 -192 97 -255 37 -80 113
-206 150 -249 128 -151 246 -247 370 -302 19 -9 53 -24 75 -33 64 -29 198 -62
320 -79 64 -8 283 -8 355 0 50 7 139 24 230 46 20 5 47 15 60 22 14 7 26 13
27 13 20 -8 181 75 288 148 42 29 115 91 162 138 l86 86 66 -65 c37 -36 86
-81 110 -100 52 -42 183 -130 194 -130 4 0 25 -11 47 -25 77 -49 264 -107 415
-129 87 -13 362 -14 415 -1 14 3 41 7 60 10 88 12 256 67 352 116 131 66 247
151 362 264 l61 60 60 -60 c151 -152 304 -250 500 -323 251 -93 600 -103 875
-26 72 20 73 20 90 27 8 4 34 13 58 22 24 8 55 23 70 33 15 10 40 24 57 32 41
21 171 106 208 138 18 15 61 56 97 92 l64 65 71 -70 c80 -80 151 -145 160
-145 3 0 32 -17 63 -38 141 -95 329 -169 477 -188 17 -2 41 -6 55 -9 14 -3 90
-8 170 -10 512 -13 886 199 1109 630 90 173 151 406 155 592 4 146 -28 334
-74 438 -53 121 -111 224 -268 475 -101 162 -192 307 -201 322 -59 99 -535
858 -579 923 -77 113 -125 152 -242 197 -29 11 -545 13 -2945 14 -1600 1
-2921 0 -2935 -3z"/>
<path d="M1536 3317 c0 -1328 1 -1425 18 -1472 29 -83 57 -127 123 -192 62
-61 84 -75 173 -110 43 -17 207 -18 3255 -20 2051 -1 3228 1 3260 8 178 34
341 201 360 369 5 39 10 2777 6 2832 -1 4 -16 2 -33 -3 -18 -6 -40 -12 -48
-14 -8 -1 -33 -8 -55 -14 -99 -26 -387 -35 -535 -17 -70 8 -185 31 -212 41
-15 6 -17 -42 -17 -682 0 -378 0 -696 0 -706 -1 -16 -134 -17 -2698 -15
l-2698 3 0 701 0 701 -60 -13 c-33 -7 -80 -15 -105 -19 -25 -3 -61 -9 -80 -12
-49 -9 -334 -9 -400 -1 -75 10 -150 25 -180 36 -14 5 -36 12 -50 15 l-25 6 1
-1422z"/>
</g>
</svg>
